<svg width="512" height="512" viewBox="0 0 512 512" xmlns="http://www.w3.org/2000/svg">
  <rect width="512" height="512" fill="transparent"/>
<g transform="translate(0 70) scale(0.465)">
    <g transform="translate(0,762) scale(0.1,-0.1)" stroke="none">
      <path fill="#0078D4" d="M3282 7039 c-308 -40 -577 -228 -720 -504 -18 -33 -133 -305 -258 -605 -124 -300 -228 -551 -231 -557 -4 -10 611 -13 2948 -15 2774 -3 2959 -4 3041 -21 395 -80 713 -270 947 -567 85 -108 108 -144 171 -269 102 -205 149 -393 157 -631 6 -172 -5 -282 -42 -430 -134 -529 -545 -957 -1061 -1104 -219 -63 -137 -59 -1556 -63 l-1298 -4 9 23 c105 272 164 388 239 468 79 86 153 136 262 174 l85 31 985 5 985 6 74 22 c310 95 526 318 602 622 29 115 23 328 -11 435 -103 324 -364 549 -688 595 -54 8 -635 10 -1945 8 l-1869 -3 -35 -85 c-51 -124 -209 -507 -333 -805 -59 -143 -139 -336 -178 -430 -83 -202 -675 -1630 -943 -2276 -104 -251 -189 -462 -189 -468 0 -9 700 -11 2813 -8 3059 3 2860 0 3162 57 1003 191 1855 843 2301 1764 221 458 324 902 324 1409 0 979 -432 1891 -1190 2508 -491 399 -1025 623 -1695 711 -107 14 -4759 21 -4863 7z"/>
      <path fill="#22C55E" d="M3025 4645 c-340 -65 -602 -287 -733 -622 -21 -52 -48 -118 -310 -748 -93 -225 -344 -831 -557 -1345 -213 -514 -425 -1026 -471 -1137 -46 -111 -84 -204 -84 -207 0 -4 127 -6 283 -6 l282 0 94 228 c52 125 138 333 191 462 54 129 168 406 255 615 86 209 228 551 315 760 396 953 830 2004 830 2009 0 8 -10 7 -95 -9z"/>
      <path fill="#16A34A" d="M3210 4363 c-200 -484 -307 -742 -500 -1208 -100 -242 -257 -622 -350 -845 -92 -223 -250 -603 -350 -845 -100 -242 -222 -536 -271 -653 -49 -118 -89 -218 -89 -223 0 -6 113 -8 282 -7 l282 3 323 780 c178 429 390 942 472 1140 240 578 883 2129 888 2143 4 9 -56 12 -279 12 l-284 0 -124 -297z"/>
    </g>
  </g>
</svg>
